<svg xmlns="http://www.w3.org/2000/svg" width="512" height="512" viewBox="0 0 512 512" fill="none"><circle cx="256" cy="256" r="256" fill="#0D6EFD"></circle><path fill-rule="evenodd" clip-rule="evenodd" d="M65 255.388C65 287.596 71.6784 316.738 83.2421 342.132C92.7271 362.954 111.594 391.865 125.687 402.996C130.959 400.307 134.901 395.127 139.686 390.044C136.176 380.305 85.9583 342.286 85.7486 256.692C85.5353 170.669 133.601 135.645 140.141 121.737C134.485 117.23 131.991 111.776 125.687 109C94.2529 137.119 65 193.245 65 255.388ZM106.191 259.306C106.209 284.806 111.627 308.389 120.693 328.211C127.336 342.74 145.484 372.236 155.84 377.11C160.286 373.256 167.038 368.191 169.084 362.214C143.967 341.945 126.903 296.269 126.916 259.314C126.934 193.994 160.48 170.904 168.962 154.718L155.995 141.331C145.1 146.394 127.133 176.36 120.873 190.365C111.908 210.416 106.165 234.323 106.191 259.306ZM447 255.384C447 287.596 440.322 316.738 428.756 342.136C419.274 362.958 400.409 391.869 386.313 403C381.038 400.31 377.099 395.131 372.314 390.048C375.828 380.309 426.039 342.29 426.252 256.696C426.465 170.673 378.399 135.65 371.86 121.749C377.515 117.241 380.009 111.782 386.313 109.009C417.747 137.128 447 193.249 447 255.384ZM405.81 259.306C405.792 284.806 400.374 308.389 391.308 328.211C384.665 342.74 366.517 372.236 356.16 377.11C351.715 373.256 344.962 368.191 342.916 362.214C368.033 341.945 385.097 296.269 385.084 259.314C385.047 193.994 351.521 170.904 343.039 154.718L356.005 141.334C366.901 146.394 384.871 176.36 391.127 190.362C400.093 210.415 405.836 234.323 405.81 259.306ZM255.161 191.329C291.305 191.329 320.603 220.546 320.603 256.589C320.603 292.632 291.305 321.849 255.161 321.849C219.016 321.849 189.718 292.632 189.718 256.589C189.718 220.546 219.016 191.329 255.161 191.329Z" fill="white"></path></svg>