<svg xmlns="http://www.w3.org/2000/svg" width="110" height="51" viewBox="0 0 110 51"><path d="M24.3166 8.88609H30.9307C30.9209 10.4479 30.8691 11.4628 30.7755 11.9308C30.6721 12.4481 30.5095 12.8373 30.2878 13.0984C30.0661 13.3595 29.7261 13.5665 29.268 13.7192C28.6472 13.9212 27.2505 14.0222 25.0778 14.0222C23.0332 14.0222 21.5872 13.9557 20.7399 13.8226C20.0009 13.7044 19.4663 13.3842 19.1362 12.8619C18.7667 12.2757 18.582 10.975 18.582 8.95999C18.582 7.56081 18.683 6.46955 18.885 5.68621C19.0771 4.94228 19.5328 4.45453 20.2521 4.22298C20.9763 3.99142 22.3952 3.87565 24.5088 3.87565C25.2034 3.87565 25.9819 3.89535 26.844 3.93477C27.7111 3.96925 28.3023 4.00867 28.6176 4.05301C29.263 4.14169 29.7877 4.39049 30.1917 4.7994C30.4331 5.05066 30.6031 5.34134 30.7016 5.67143C30.8002 6.00151 30.8544 6.46709 30.8642 7.06814H29.4749C29.4601 6.2848 29.3517 5.79213 29.1497 5.59014C29.0167 5.46204 28.8295 5.36843 28.5881 5.30931C28.3467 5.25019 27.9624 5.20093 27.4352 5.16151C26.711 5.11225 25.8119 5.08761 24.7379 5.08761C23.3239 5.08761 22.3065 5.12456 21.6858 5.19846C21.065 5.27236 20.6536 5.40539 20.4516 5.59753C20.2644 5.77489 20.1339 6.09512 20.06 6.55823C19.991 7.01641 19.9565 7.75295 19.9565 8.76785C19.9565 10.2803 20.0181 11.2731 20.1413 11.746C20.2201 12.0269 20.3433 12.2362 20.5108 12.3742C20.6783 12.5072 20.9295 12.6008 21.2645 12.655C21.9247 12.7585 23.3682 12.8102 25.5951 12.8102C26.8268 12.8102 27.7358 12.7609 28.322 12.6624C28.8541 12.5737 29.1916 12.3816 29.3345 12.086C29.4823 11.7855 29.5636 11.113 29.5783 10.0685H24.3166V8.88609ZM32.091 6.98685H33.1995V14H32.091V6.98685ZM32.091 3.9126H33.1995V5.22802H32.091V3.9126ZM34.271 11.5539H35.4534C35.4534 11.6524 35.4534 11.7189 35.4534 11.7534C35.4534 12.1328 35.4928 12.4038 35.5717 12.5663C35.6554 12.7289 35.818 12.8545 36.0594 12.9432C36.3796 13.0565 37.3009 13.1132 38.8233 13.1132C39.7741 13.1132 40.4343 13.0935 40.8038 13.0541C41.1782 13.0097 41.4467 12.926 41.6093 12.8028C41.831 12.6353 41.9419 12.3767 41.9419 12.0269C41.9419 11.6032 41.8089 11.315 41.5428 11.1622C41.2768 11.0046 40.7915 10.9282 40.087 10.9331C39.8653 10.9381 38.7986 10.9257 36.8871 10.8962C36.3895 10.8863 35.9904 10.8469 35.6899 10.7779C35.3943 10.709 35.148 10.5981 34.9509 10.4454C34.5765 10.1547 34.3893 9.66451 34.3893 8.97477C34.3893 8.24562 34.6233 7.716 35.0913 7.38592C35.3376 7.21348 35.7416 7.09031 36.3033 7.01641C36.8649 6.93759 37.6729 6.89817 38.7272 6.89817C39.9047 6.89817 40.7718 6.96222 41.3285 7.09031C41.8901 7.21841 42.3015 7.44504 42.5626 7.7702C42.6907 7.92785 42.772 8.09536 42.8065 8.27272C42.8459 8.44515 42.8656 8.73829 42.8656 9.15213H41.698C41.6931 8.72351 41.6216 8.44269 41.4837 8.30967C41.331 8.15694 41.0354 8.04609 40.5969 7.97712C40.1584 7.90814 39.5229 7.87366 38.6903 7.87366C37.1728 7.87366 36.2515 7.97958 35.9264 8.19143C35.6899 8.34908 35.5717 8.61513 35.5717 8.98955C35.5717 9.37384 35.7096 9.62756 35.9855 9.75073C36.2614 9.8739 36.8181 9.92809 37.6557 9.91331C38.4833 9.89853 39.5549 9.91824 40.8703 9.97243C41.6684 10.002 42.2424 10.1769 42.5922 10.4971C42.9469 10.8174 43.1243 11.3248 43.1243 12.0195C43.1243 12.4382 43.0627 12.7782 42.9395 13.0393C42.8164 13.3004 42.6168 13.5147 42.3409 13.6822C42.0995 13.83 41.7054 13.936 41.1585 14C40.6117 14.0591 39.8209 14.0887 38.7863 14.0887C37.6286 14.0887 36.7688 14.0542 36.2072 13.9852C35.6505 13.9162 35.2416 13.7931 34.9805 13.6157C34.7144 13.4384 34.5272 13.224 34.4188 12.9728C34.3154 12.7215 34.2636 12.3717 34.2636 11.9234C34.2636 11.8643 34.2661 11.7411 34.271 11.5539ZM44.1811 3.9126H45.2896V7.82932H45.3561C45.6073 7.45489 45.9399 7.20609 46.3537 7.08292C46.7725 6.95976 47.4795 6.89817 48.4747 6.89817C49.6324 6.89817 50.4552 6.93512 50.9429 7.00902C51.4307 7.08292 51.8297 7.23072 52.1401 7.45243C52.5293 7.73325 52.8077 8.08551 52.9752 8.5092C53.1673 8.99694 53.2634 9.69161 53.2634 10.5932C53.2634 11.5884 53.1156 12.3348 52.82 12.8324C52.4308 13.4827 51.7287 13.8744 50.7138 14.0074C50.2951 14.0616 49.6127 14.0887 48.6668 14.0887C47.5484 14.0887 46.7774 14.0271 46.3537 13.9039C45.935 13.7808 45.595 13.5147 45.3339 13.1058H45.2748V14H44.1811V3.9126ZM48.4968 7.87366C47.7628 7.87366 47.206 7.90322 46.8267 7.96234C46.4523 8.02146 46.1616 8.12738 45.9547 8.28011C45.6985 8.45747 45.5162 8.71612 45.4078 9.05606C45.3043 9.39601 45.2526 9.88129 45.2526 10.5119C45.2526 11.3445 45.3413 11.9185 45.5187 12.2338C45.7256 12.5934 46.0557 12.8324 46.5089 12.9506C46.9671 13.0639 47.8145 13.1206 49.0511 13.1206C49.6965 13.1206 50.1916 13.0886 50.5365 13.0245C50.8814 12.9605 51.172 12.8472 51.4085 12.6846C51.645 12.522 51.815 12.2707 51.9184 11.9308C52.0268 11.5908 52.081 11.1203 52.081 10.5193C52.081 9.71624 51.9874 9.13735 51.8002 8.78263C51.6031 8.41313 51.2903 8.16926 50.8617 8.05102C50.433 7.93278 49.6448 7.87366 48.4968 7.87366ZM58.4882 6.89817C59.5917 6.89817 60.4047 6.93266 60.9269 7.00163C61.454 7.06568 61.8654 7.18638 62.161 7.36375C62.6044 7.62979 62.9247 8.00914 63.1217 8.50181C63.3188 8.98955 63.4173 9.65466 63.4173 10.4971C63.4173 11.4332 63.2991 12.1451 63.0626 12.6328C62.8902 13.0023 62.6586 13.2906 62.3679 13.4975C62.0822 13.7044 61.7053 13.8547 61.2373 13.9483C60.784 14.0419 60.0302 14.0887 58.9759 14.0887C57.9807 14.0887 57.2294 14.0567 56.722 13.9926C56.2145 13.9236 55.8031 13.8029 55.4878 13.6305C55.0198 13.3792 54.6848 13.0097 54.4828 12.522C54.2808 12.0293 54.1798 11.342 54.1798 10.4602C54.1798 9.47483 54.3251 8.72844 54.6158 8.22099C54.9114 7.69876 55.3203 7.34897 55.8425 7.1716C56.3648 6.99424 57.2466 6.9031 58.4882 6.89817ZM58.6655 7.87366C57.9315 7.87366 57.3772 7.90075 57.0028 7.95495C56.6283 8.00914 56.3303 8.10768 56.1086 8.25055C55.8475 8.41806 55.6578 8.6841 55.5395 9.04867C55.4213 9.40832 55.3622 9.90099 55.3622 10.5267C55.3622 11.2361 55.441 11.7682 55.5987 12.1229C55.7563 12.4727 56.0273 12.7215 56.4116 12.8693C56.8353 13.0319 57.6605 13.1132 58.8872 13.1132C59.6854 13.1132 60.2716 13.0836 60.6461 13.0245C61.0254 12.9654 61.3259 12.8545 61.5476 12.692C61.794 12.5195 61.9689 12.2609 62.0723 11.916C62.1807 11.5711 62.2349 11.0859 62.2349 10.4602C62.2349 9.72117 62.1512 9.17923 61.9837 8.83436C61.7964 8.45008 61.4836 8.19389 61.0451 8.0658C60.6116 7.93771 59.8184 7.87366 58.6655 7.87366ZM64.4815 6.98685H65.59V7.93278H65.6639C65.8363 7.61747 66.0999 7.36867 66.4546 7.18638C66.6665 7.078 66.9448 7.0041 67.2897 6.96468C67.6395 6.92034 68.1593 6.89817 68.849 6.89817C69.5387 6.89817 70.0511 6.93759 70.3861 7.01641C70.7261 7.09031 71.0167 7.22826 71.2582 7.43026C71.7311 7.83917 71.9676 8.50181 71.9676 9.41818V10.1424H70.8295V9.63988C70.8295 9.25067 70.8024 8.95753 70.7482 8.76046C70.699 8.55847 70.6078 8.39342 70.4748 8.26533C70.194 8.00422 69.6102 7.87366 68.7234 7.87366C67.3882 7.87366 66.531 8.04856 66.1516 8.39835C65.7772 8.74322 65.59 9.53149 65.59 10.7632V14H64.4815V6.98685ZM72.7288 6.98685H73.8373V8.04363H73.9186C74.1551 7.5953 74.5147 7.29231 74.9975 7.13465C75.4853 6.977 76.3056 6.89817 77.4584 6.89817C78.4634 6.89817 79.2074 6.95483 79.6902 7.06814C80.1779 7.17653 80.5598 7.37606 80.8356 7.66674C81.0524 7.89829 81.2027 8.18897 81.2864 8.53876C81.3751 8.88363 81.4195 9.38369 81.4195 10.0389V14H80.311V10.5119C80.311 9.88621 80.2839 9.43788 80.2297 9.16691C80.1804 8.89102 80.0769 8.65947 79.9193 8.47225C79.7321 8.25548 79.4439 8.10275 79.0546 8.01407C78.6704 7.92046 78.0939 7.87366 77.3254 7.87366C76.4681 7.87366 75.8006 7.93771 75.3227 8.0658C74.8448 8.18897 74.4851 8.39342 74.2437 8.67917C74.0762 8.88609 73.9654 9.12011 73.9112 9.38123C73.8619 9.63741 73.8373 10.0956 73.8373 10.7558V14H72.7288V6.98685ZM90.2579 11.8347H91.4182C91.3985 12.6723 91.1029 13.2585 90.5314 13.5935C89.9599 13.9236 88.9647 14.0887 87.5458 14.0887C86.3732 14.0887 85.4815 14.0443 84.8706 13.9557C84.2646 13.8621 83.8064 13.7069 83.4961 13.4901C82.7866 12.9876 82.4319 11.9948 82.4319 10.5119C82.4319 9.47237 82.5822 8.69149 82.8827 8.16926C83.1684 7.67166 83.5798 7.33665 84.1168 7.16421C84.6588 6.98685 85.5603 6.89817 86.8216 6.89817C88.0286 6.89817 88.9006 6.96222 89.4377 7.09031C89.9747 7.21841 90.4033 7.46474 90.7235 7.82932C90.9896 8.13477 91.1718 8.48949 91.2704 8.89348C91.3689 9.29747 91.4231 9.91331 91.433 10.741H83.6217C83.6513 11.613 83.8237 12.2116 84.139 12.5368C84.3508 12.7585 84.6883 12.9112 85.1514 12.995C85.6195 13.0738 86.3782 13.1132 87.4276 13.1132C88.2208 13.1132 88.8021 13.0762 89.1716 13.0023C89.5411 12.9284 89.817 12.793 89.9993 12.5959C90.1372 12.4432 90.2235 12.1894 90.2579 11.8347ZM90.2062 9.79507C90.2013 9.11026 90.019 8.63237 89.6594 8.3614C89.4229 8.17911 89.0903 8.05348 88.6617 7.98451C88.238 7.91061 87.6148 7.87366 86.792 7.87366C86.0727 7.87366 85.5234 7.90814 85.144 7.97712C84.7696 8.04117 84.4765 8.15694 84.2646 8.32445C83.9148 8.59542 83.7128 9.08562 83.6586 9.79507H90.2062Z" fill="#0d6efd"/><path fill-rule="evenodd" clip-rule="evenodd" d="M11.1814 38.2466H7.37097L6.77752 41.3074H0L5.21585 19.1939H13.6175L18.8645 41.3074H11.7748L11.1814 38.2466ZM56.1179 26.7307C56.1179 27.5498 56.2873 28.2909 56.5805 28.9367C56.8211 29.4663 57.2995 30.2015 57.6569 30.4846C57.7906 30.4162 57.8906 30.2845 58.0119 30.1552C57.9229 29.9075 56.6494 28.9406 56.6441 26.7639C56.6387 24.5762 57.8576 23.6855 58.0235 23.3318C57.88 23.2171 57.8168 23.0784 57.6569 23.0078C56.8597 23.7229 56.1179 25.1502 56.1179 26.7306V26.7307ZM57.1625 26.8303C57.163 27.4788 57.3004 28.0786 57.5303 28.5827C57.6987 28.9522 58.159 29.7023 58.4216 29.8263C58.5344 29.7282 58.7056 29.5994 58.7575 29.4474C58.1205 28.932 57.6878 27.7704 57.6881 26.8305C57.6886 25.1694 58.5393 24.5821 58.7544 24.1705L58.4256 23.83C58.1492 23.9588 57.6936 24.7209 57.5348 25.0771C57.3075 25.587 57.1618 26.195 57.1625 26.8303V26.8303ZM65.8055 26.7306C65.8055 27.5498 65.6362 28.2909 65.3428 28.9368C65.1024 29.4664 64.624 30.2016 64.2665 30.4847C64.1327 30.4163 64.0328 30.2845 63.9115 30.1553C64.0006 29.9076 65.2739 28.9407 65.2793 26.764C65.2847 24.5763 64.0658 23.6856 63.8999 23.332C64.0434 23.2174 64.1066 23.0786 64.2665 23.0081C65.0637 23.7232 65.8055 25.1504 65.8055 26.7306V26.7306ZM64.7609 26.8303C64.7605 27.4788 64.6231 28.0786 64.3932 28.5827C64.2247 28.9522 63.7644 29.7023 63.5018 29.8263C63.3891 29.7282 63.2178 29.5994 63.1659 29.4474C63.8029 28.932 64.2357 27.7704 64.2353 26.8305C64.2344 25.1694 63.3842 24.5821 63.169 24.1705L63.4979 23.8301C63.7742 23.9588 64.2299 24.7209 64.3886 25.077C64.6159 25.587 64.7616 26.195 64.7609 26.8303V26.8303ZM8.1194 32.9995H10.3682L9.3375 25.8161H9.21264L8.1194 32.9995ZM20.3624 19.1948H27.2024V35.0609H32.8867V41.3074H20.3624V19.1948ZM44.3184 38.2465H40.5082L39.9147 41.3074H33.1372L38.3531 19.1939H46.7547L52.0017 41.3074H44.912L44.3184 38.2465ZM41.2576 32.9995H43.5064L42.4757 25.8161H42.3508L41.2576 32.9995ZM60.5591 33.3744H59.997V41.3074H53.5006V19.1939H61.7149C62.985 19.1939 64.0937 19.3605 65.0412 19.6936C65.9885 20.0267 66.7641 20.5056 67.368 21.1303C67.9718 21.7549 68.4247 22.5097 68.7266 23.3947C69.0285 24.2795 69.1795 25.2738 69.1795 26.3773C69.1795 27.1269 69.0962 27.8036 68.9296 28.4074C68.763 29.0112 68.5548 29.5473 68.305 30.0158C68.0551 30.4843 67.774 30.8747 67.4617 31.187C67.1494 31.4993 66.8371 31.7284 66.5247 31.8742L70.054 41.3064H62.9017L60.5591 33.3744ZM87.3251 28.6896H87.2002L84.4517 41.3074H80.1417L77.6119 28.6896H77.4869L77.7681 41.3074H71.6777V19.1939H79.767L82.3593 30.75H82.4842L85.0454 19.1939H93.6342V41.3074H87.013L87.3251 28.6896ZM101.973 41.8696C101.224 41.8696 100.511 41.8019 99.8338 41.6666C99.157 41.5313 98.5324 41.3491 97.9599 41.12C97.3873 40.8909 96.8615 40.6307 96.3826 40.3392C95.9037 40.0477 95.4977 39.7562 95.1645 39.4647L98.4128 34.3114C98.8917 34.7069 99.4174 35.0296 99.9901 35.2795C100.563 35.5294 101.13 35.6543 101.692 35.6543C102.046 35.6543 102.343 35.5658 102.582 35.3888C102.822 35.2118 102.941 34.9568 102.941 34.6236C102.941 34.2281 102.77 33.8949 102.426 33.6242C102.083 33.3535 101.546 33.0412 100.818 32.6872C100.193 32.3958 99.5996 32.0678 99.0374 31.7034C98.4752 31.3391 97.9756 30.8966 97.5383 30.376C97.101 29.8555 96.7523 29.2464 96.492 28.5489C96.2317 27.8514 96.1015 27.0342 96.1015 26.0971C96.1015 24.7437 96.341 23.5934 96.8199 22.6459C97.2988 21.6985 97.9079 20.9282 98.6471 20.3347C99.3862 19.7412 100.209 19.3092 101.114 19.0386C102.02 18.7678 102.91 18.6325 103.785 18.6325C105.117 18.6325 106.309 18.8407 107.361 19.2572C108.412 19.6736 109.292 20.215 110 20.8812L106.658 25.9722C106.304 25.6182 105.888 25.3215 105.409 25.082C104.93 24.8426 104.472 24.7229 104.035 24.7229C103.701 24.7229 103.4 24.8062 103.129 24.9727C102.858 25.1393 102.723 25.4308 102.723 25.8473C102.723 26.1804 102.863 26.4511 103.144 26.6593C103.426 26.8675 103.972 27.1694 104.784 27.565C105.242 27.794 105.752 28.0804 106.315 28.424C106.877 28.7675 107.408 29.2048 107.907 29.7357C108.407 30.2667 108.829 30.9069 109.172 31.6565C109.516 32.4061 109.688 33.291 109.688 34.3113C109.688 35.6438 109.469 36.789 109.032 37.7467C108.595 38.7045 108.012 39.4853 107.283 40.0891C106.554 40.6929 105.726 41.1406 104.8 41.4321C103.873 41.7237 102.931 41.8694 101.973 41.8694L101.973 41.8696ZM60.9404 25.1016C61.8571 25.1016 62.6001 25.8446 62.6001 26.7612C62.6001 27.6779 61.8571 28.4209 60.9404 28.4209C60.0238 28.4209 59.2808 27.6779 59.2808 26.7612C59.2808 25.8446 60.0238 25.1016 60.9404 25.1016Z" fill="#0d6efd"/><path fill-rule="evenodd" clip-rule="evenodd" d="M107.755 46.3988H109.218L109.915 48.293L109.218 50.1872H107.755L108.451 48.293L107.755 46.3988ZM105.192 46.3988H106.655L107.351 48.293L106.655 50.1872H105.192L105.888 48.293L105.192 46.3988ZM102.628 46.3988H104.091L104.788 48.293L104.091 50.1872H102.628L103.324 48.293L102.628 46.3988ZM100.064 46.3988H101.528L102.224 48.293L101.528 50.1872H100.064L100.761 48.293L100.064 46.3988ZM97.5009 46.3988H98.9641L99.6604 48.293L98.9641 50.1872H97.5009L98.1972 48.293L97.5009 46.3988ZM94.9372 46.3988H96.4005L97.0969 48.293L96.4005 50.1872H94.9372L95.6336 48.293L94.9372 46.3988ZM92.3736 46.3988H93.8369L94.5332 48.293L93.8369 50.1872H92.3736L93.07 48.293L92.3736 46.3988ZM89.8102 46.3988H91.2734L91.9697 48.293L91.2734 50.1872H89.8102L90.5065 48.293L89.8102 46.3988ZM87.2465 46.3988H88.7098L89.4061 48.293L88.7098 50.1872H87.2465L87.9429 48.293L87.2465 46.3988ZM84.6829 46.3988H86.1461L86.8425 48.293L86.1461 50.1872H84.6829L85.3792 48.293L84.6829 46.3988ZM82.1194 46.3988H83.5826L84.279 48.293L83.5826 50.1872H82.1194L82.8158 48.293L82.1194 46.3988ZM79.5558 46.3988H81.0191L81.7154 48.293L81.0191 50.1872H79.5558L80.2522 48.293L79.5558 46.3988ZM76.9922 46.3988H78.4554L79.1518 48.293L78.4554 50.1872H76.9922L77.6885 48.293L76.9922 46.3988ZM74.4287 46.3988H75.8919L76.5883 48.293L75.8919 50.1872H74.4287L75.1251 48.293L74.4287 46.3988ZM71.8651 46.3988H73.3284L74.0247 48.293L73.3284 50.1872H71.8651L72.5614 48.293L71.8651 46.3988ZM69.3015 46.3988H70.7647L71.4611 48.293L70.7647 50.1872H69.3015L69.9978 48.293L69.3015 46.3988ZM66.7378 46.3988H68.2011L68.8974 48.293L68.2011 50.1872H66.7378L67.4342 48.293L66.7378 46.3988ZM64.1744 46.3988H65.6376L66.334 48.293L65.6376 50.1872H64.1744L64.8707 48.293L64.1744 46.3988ZM43.666 46.3988H45.1293L45.8256 48.293L45.1293 50.1872H43.666L44.3624 48.293L43.666 46.3988ZM41.1026 46.3988H42.5658L43.2622 48.293L42.5658 50.1872H41.1026L41.7989 48.293L41.1026 46.3988ZM38.5389 46.3988H40.0022L40.6985 48.293L40.0022 50.1872H38.5389L39.2353 48.293L38.5389 46.3988ZM35.9753 46.3988H37.4385L38.1349 48.293L37.4385 50.1872H35.9753L36.6716 48.293L35.9753 46.3988ZM33.4118 46.3988H34.875L35.5714 48.293L34.875 50.1872H33.4118L34.1082 48.293L33.4118 46.3988ZM30.8482 46.3988H32.3114L33.0078 48.293L32.3114 50.1872H30.8482L31.5446 48.293L30.8482 46.3988ZM28.2846 46.3988H29.7478L30.4442 48.293L29.7478 50.1872H28.2846L28.9809 48.293L28.2846 46.3988ZM25.7211 46.3988H27.1843L27.8807 48.293L27.1843 50.1872H25.7211L26.4175 48.293L25.7211 46.3988ZM23.1575 46.3988H24.6207L25.3171 48.293L24.6207 50.1872H23.1575L23.8538 48.293L23.1575 46.3988ZM20.5939 46.3988H22.0571L22.7534 48.293L22.0571 50.1872H20.5939L21.2902 48.293L20.5939 46.3988ZM18.0304 46.3988H19.4936L20.1899 48.293L19.4936 50.1872H18.0304L18.7268 48.293L18.0304 46.3988ZM15.4668 46.3988H16.93L17.6264 48.293L16.93 50.1872H15.4668L16.1631 48.293L15.4668 46.3988ZM12.9031 46.3988H14.3664L15.0627 48.293L14.3664 50.1872H12.9031L13.5995 48.293L12.9031 46.3988ZM10.3397 46.3988H11.8029L12.4992 48.293L11.8029 50.1872H10.3397L11.036 48.293L10.3397 46.3988ZM7.77604 46.3988H9.23929L9.93565 48.293L9.23929 50.1872H7.77604L8.47239 48.293L7.77604 46.3988ZM5.21241 46.3988H6.67565L7.372 48.293L6.67565 50.1872H5.21241L5.90875 48.293L5.21241 46.3988ZM2.64896 46.3988H4.11216L4.80851 48.293L4.11216 50.1872H2.64896L3.34532 48.293L2.64896 46.3988ZM0.0853271 46.3988H1.54857L2.24492 48.293L1.54857 50.1872H0.0853271L0.78167 48.293L0.0853271 46.3988ZM57.9871 49.2216V47.3472H59.7579C60.5392 47.3472 60.7094 47.3699 60.8417 47.5063C60.9678 47.6312 61.0118 47.8413 61.0118 48.307C61.0118 49.1648 60.9299 49.2215 59.7705 49.2215L57.9871 49.2216ZM56.7267 50.1872H59.7579C61.1756 50.1872 61.5476 50.1303 61.8689 49.8691C62.1777 49.6134 62.2722 49.2273 62.2722 48.239C62.2722 47.6199 62.247 47.3814 62.1524 47.1144C62.0265 46.7622 61.7492 46.5464 61.3333 46.4726C60.9741 46.4045 60.8291 46.3987 59.7579 46.3987H56.7267L56.7267 50.1872ZM51.3451 46.3987V47.3643H53.2167V50.1871H54.5591V47.3643H56.4306V46.3987H51.3451ZM47.728 46.3987V50.1872H52.0573V49.2216H49.0703V46.3988L47.728 46.3987Z" fill="#0d6efd"/></svg>
